<?xml version="1.0" encoding="UTF-8"?>
<svg id="Layer_2" data-name="Layer 2" xmlns="http://www.w3.org/2000/svg" viewBox="0 0 127.14 24.96">
  <defs>
    <style>
      .cls-1 {
        fill: #162952;
      }

      .cls-1, .cls-2 {
        stroke-width: 0px;
      }

      .cls-2 {
        fill: #f15830;
      }
    </style>
  </defs>
  <g id="Layer_1-2" data-name="Layer 1">
    <g>
      <g>
        <path class="cls-1" d="M0,6.06v-3.7h4.1v3.7h4.83l-2.26,3.51h-2.57v6.18c0,.94.4,1.4,1.32,1.4.76,0,1.43-.19,2.02-.51v3.29c-.86.51-1.86.84-3.24.84-2.51,0-4.21-1-4.21-4.34V6.06Z"/>
        <path class="cls-1" d="M8.06,13.37v-.05c0-4.13,2.94-7.53,7.15-7.53,4.83,0,7.04,3.75,7.04,7.85,0,.32-.03.7-.05,1.08h-10.06c.4,1.86,1.7,2.83,3.53,2.83,1.38,0,2.37-.43,3.51-1.48l2.35,2.08c-1.35,1.67-3.29,2.7-5.91,2.7-4.34,0-7.55-3.05-7.55-7.47ZM18.26,12.16c-.24-1.84-1.32-3.08-3.05-3.08s-2.81,1.21-3.13,3.08h6.18Z"/>
        <path class="cls-1" d="M23.57,13.41v-.05c0-4.13,3.16-7.53,7.58-7.53,2.72,0,4.42.92,5.77,2.43l-2.51,2.7c-.92-.97-1.83-1.59-3.29-1.59-2.05,0-3.51,1.81-3.51,3.94v.05c0,2.21,1.43,3.99,3.67,3.99,1.38,0,2.32-.59,3.32-1.54l2.4,2.43c-1.4,1.54-3.02,2.64-5.91,2.64-4.34,0-7.53-3.34-7.53-7.47Z"/>
        <path class="cls-1" d="M38.33,2.61l4.1-2.61v8.15c.94-1.21,2.16-2.32,4.24-2.32,3.1,0,4.91,2.05,4.91,5.37v9.36h-4.1v-8.07c0-1.94-.92-2.94-2.48-2.94s-2.56,1-2.56,2.94v8.07h-4.1V2.61Z"/>
      </g>
      <g>
        <path class="cls-2" d="M52.65,18.65l1.75-2.7c1.56,1.13,3.21,1.73,4.56,1.73,1.19,0,1.73-.43,1.73-1.08v-.05c0-.89-1.4-1.19-2.99-1.67-2.02-.59-4.32-1.54-4.32-4.34v-.05c0-2.94,2.37-4.59,5.29-4.59,1.83,0,3.83.62,5.4,1.67l-1.56,2.83c-1.43-.84-2.86-1.35-3.91-1.35s-1.51.43-1.51,1v.05c0,.81,1.38,1.19,2.94,1.73,2.02.67,4.37,1.65,4.37,4.29v.05c0,3.21-2.4,4.67-5.53,4.67-2.02,0-4.29-.67-6.2-2.19Z"/>
        <path class="cls-2" d="M65.27,13.41v-.05c0-4.15,3.35-7.53,7.85-7.53s7.8,3.32,7.8,7.47v.05c0,4.15-3.35,7.53-7.85,7.53s-7.8-3.32-7.8-7.47ZM76.87,13.41v-.05c0-2.13-1.54-3.99-3.8-3.99s-3.75,1.81-3.75,3.94v.05c0,2.13,1.54,3.99,3.8,3.99s3.75-1.81,3.75-3.94Z"/>
        <path class="cls-2" d="M82.31,7.84l4.1-2.61v2.95c1-1.35,2.37-2.35,4.5-2.35,3.37,0,6.58,2.64,6.58,7.47v.05c0,4.83-3.16,7.47-6.58,7.47-2.19,0-3.53-1-4.5-2.16v6.2h-4.1V7.84ZM93.4,13.36v-.05c0-2.4-1.62-3.99-3.53-3.99s-3.51,1.59-3.51,3.99v.05c0,2.4,1.59,3.99,3.51,3.99s3.53-1.56,3.53-3.99Z"/>
        <path class="cls-2" d="M98.84,2.61l4.1-2.61v8.15c.94-1.21,2.16-2.32,4.24-2.32,3.1,0,4.91,2.05,4.91,5.37v9.36h-4.1v-8.07c0-1.94-.92-2.94-2.48-2.94s-2.56,1-2.56,2.94v8.07h-4.1V2.61Z"/>
        <path class="cls-2" d="M122.88,6.1h4.26l-5.56,14.81c-1.11,2.94-2.29,4.05-4.75,4.05-1.48,0-2.59-.38-3.64-1l1.38-2.97c.54.32,1.21.57,1.75.57.7,0,1.08-.22,1.43-.94l-5.66-14.51h4.34l3.29,9.85,3.16-9.85Z"/>
      </g>
    </g>
  </g>
</svg>